<svg width="30" height="31" viewBox="0 0 30 31" fill="none" xmlns="http://www.w3.org/2000/svg">
<g id="akar-icons:linkedin-fill">
<path id="Vector" fill-rule="evenodd" clip-rule="evenodd" d="M11.7863 11.9053H16.4287V14.2178C17.0975 12.8878 18.8125 11.6928 21.3888 11.6928C26.3275 11.6928 27.5 14.3403 27.5 19.1978V28.1941H22.5V20.3041C22.5 17.5378 21.8313 15.9778 20.1287 15.9778C17.7675 15.9778 16.7863 17.6591 16.7863 20.3028V28.1941H11.7863V11.9053ZM3.2125 27.9816H8.2125V11.6928H3.2125V27.9816ZM8.92875 6.38159C8.92894 6.80069 8.84582 7.21564 8.68423 7.60233C8.52265 7.98902 8.28581 8.33973 7.9875 8.63409C7.383 9.23487 6.56476 9.57116 5.7125 9.56909C4.86174 9.56852 4.04539 9.23309 3.44 8.63534C3.14276 8.33998 2.90673 7.98887 2.74543 7.60213C2.58413 7.21539 2.50072 6.80062 2.5 6.38159C2.5 5.53534 2.8375 4.72534 3.44125 4.12784C4.04611 3.52929 4.8628 3.19372 5.71375 3.19409C6.56625 3.19409 7.38375 3.53034 7.9875 4.12784C8.59 4.72534 8.92875 5.53534 8.92875 6.38159Z" fill="white"/>
</g>
</svg>
